<?xml version="1.0" encoding="iso-8859-1"?>
<!-- Generator: Adobe Illustrator 17.1.0, SVG Export Plug-In . SVG Version: 6.00 Build 0)  -->
<!DOCTYPE svg PUBLIC "-//W3C//DTD SVG 1.1//EN" "http://www.w3.org/Graphics/SVG/1.1/DTD/svg11.dtd">
<svg version="1.1" id="Capa_1" xmlns="http://www.w3.org/2000/svg" xmlns:xlink="http://www.w3.org/1999/xlink" x="0px" y="0px"
	 viewBox="0 0 387.626 387.626" style="enable-background:new 0 0 387.626 387.626;" xml:space="preserve">
<path d="M244.267,348.91v29.536c0,4.971-4.029,9-9,9s-9-4.029-9-9V348.91c0-4.971,4.029-9,9-9S244.267,343.939,244.267,348.91z
	 M124.687,217.62c1.65,1.3,3.612,1.93,5.562,1.929c2.664,0,5.302-1.178,7.077-3.433c3.075-3.906,2.401-9.564-1.504-12.639
	c-45.566-35.871-65.394-80.158-54.397-121.506c8.747-32.89,36.665-58.253,69.471-63.111c18.343-2.723,34.054,0.996,43.1,10.195
	c7.503,7.63,10.134,18.597,7.82,32.594c-3.132,18.938-25.229,30.588-48.624,42.922c-4.946,2.608-10.062,5.305-15.002,8.084
	c-9.856,5.54-19.294,12.017-21.595,21.801c-1.984,8.437,2.155,15.987,5.983,21.623c9.229,13.586,34.236,45.191,67.083,45.246
	c10.042-0.016,20.066-3.256,32.502-10.505c29.915-17.435,48.499-50.608,48.499-86.573c0-15.083-2.418-28.979-7.188-41.303
	c-1.794-4.636-7.008-6.938-11.642-5.146c-4.636,1.794-6.939,7.006-5.146,11.642c3.965,10.244,5.975,21.954,5.975,34.807
	c0,29.585-15.159,56.8-39.563,71.022c-9.539,5.561-16.776,8.045-23.438,8.056c-24.91-0.041-46.247-28.606-52.192-37.359
	c-3.412-5.023-3.481-6.841-3.353-7.389c0.19-0.807,1.681-3.928,12.895-10.232c4.729-2.659,9.735-5.299,14.576-7.851
	c26.251-13.841,53.396-28.153,57.987-55.908c4.116-24.899-4.659-39.929-12.745-48.151C193.706,3.09,172.352-2.521,148.258,1.055
	c-19.694,2.917-38.088,11.694-53.191,25.384C79.983,40.109,69.251,57.712,64.029,77.345
	C51.099,125.967,73.209,177.095,124.687,217.62z M270.207,267.52c1.681-4.678-0.749-9.832-5.427-11.513
	c-21.656-7.78-35.721-17.579-40.681-28.344c-0.071-0.16-0.147-0.317-0.229-0.473c-0.592-1.147-1.401-2.117-2.354-2.881
	c-0.907-0.731-1.971-1.295-3.151-1.633c-1.121-0.323-2.307-0.43-3.493-0.297c-0.008,0.002-0.013,0.002-0.018,0.002
	c-1.071,0.123-2.101,0.438-3.044,0.916c-1.172,0.593-2.162,1.411-2.94,2.377c-0.746,0.925-1.318,2.01-1.657,3.218
	c-0.048,0.171-0.091,0.343-0.129,0.518L182.82,335.26c-1.11,4.845,1.917,9.673,6.762,10.783c0.677,0.155,1.353,0.229,2.019,0.229
	c4.102,0,7.81-2.823,8.765-6.991l20.05-87.465c9.08,8.167,21.878,15.238,38.279,21.131
	C263.372,274.626,268.526,272.2,270.207,267.52z M192.264,369.624h-25.207l-68.624-85.955c20.021-5.233,50.854-15.634,68.976-33.219
	l4.771,14.116c1.592,4.71,6.7,7.235,11.408,5.645c4.709-1.592,7.236-6.699,5.645-11.408l-10.253-30.338
	c-0.01-0.028-0.02-0.057-0.029-0.084c-0.001-0.004-0.003-0.009-0.004-0.013c-0.001-0.003-0.002-0.006-0.003-0.009
	c-0.416-1.19-1.058-2.239-1.86-3.114c-0.73-0.798-1.616-1.476-2.64-1.981c-0.247-0.123-0.5-0.234-0.758-0.334
	c-0.007-0.001-0.01-0.004-0.014-0.005c-0.909-0.35-1.844-0.542-2.772-0.589c-1.105-0.06-2.229,0.092-3.335,0.465
	c-1.226,0.414-2.303,1.066-3.198,1.888c-0.856,0.784-1.574,1.746-2.091,2.865c0,0-0.001,0.003-0.002,0.005
	c-0.002,0.005-0.005,0.01-0.007,0.016c-0.002,0.003-0.004,0.008-0.006,0.012c0,0-0.001,0.001-0.001,0.002
	c-9.304,20.37-49.587,35.183-81.35,41.703c-0.835,0.15-1.656,0.42-2.437,0.813c-0.9,0.451-1.705,1.045-2.392,1.745
	c-0.853,0.869-1.499,1.878-1.93,2.96c-0.572,1.426-0.785,3.012-0.551,4.625c0.084,0.591,0.228,1.175,0.432,1.745
	c0.368,1.033,0.913,1.967,1.593,2.772l80.068,100.289c1.031,1.292,2.345,2.224,3.783,2.779c0.66,0.256,1.357,0.436,2.082,0.529
	c0.39,0.051,0.781,0.076,1.174,0.076c0.052,0,0.103,0,0.154-0.001h29.377c4.971,0,9-4.029,9-9S197.235,369.624,192.264,369.624z
	 M318.212,228.732c-4.971,0-9,4.029-9,9v140.894c0,4.971,4.029,9,9,9s9-4.029,9-9V237.732
	C327.212,232.762,323.182,228.732,318.212,228.732z M276.739,294.634c-4.971,0-9,4.029-9,9v74.992c0,4.971,4.029,9,9,9s9-4.029,9-9
	v-74.992C285.739,298.663,281.71,294.634,276.739,294.634z M318.323,74.992c-5.657-18.416-15.071-33.825-27.979-45.799
	c-14.24-13.209-32.04-21.515-52.905-24.687c-4.915-0.757-9.504,2.631-10.25,7.545c-0.747,4.914,2.631,9.503,7.545,10.25
	c32.857,4.995,56.433,25.585,66.383,57.976c12.537,40.811,0.169,91.791-28.769,118.585c-3.647,3.377-3.866,9.071-0.489,12.718
	c1.773,1.916,4.186,2.886,6.605,2.886c2.188,0,4.381-0.793,6.112-2.396C318.797,180.385,332.989,122.735,318.323,74.992z"/>
<g>
</g>
<g>
</g>
<g>
</g>
<g>
</g>
<g>
</g>
<g>
</g>
<g>
</g>
<g>
</g>
<g>
</g>
<g>
</g>
<g>
</g>
<g>
</g>
<g>
</g>
<g>
</g>
<g>
</g>
</svg>
