<?xml version="1.0" encoding="UTF-8" standalone="no"?>
<!-- Created with Inkscape (http://www.inkscape.org/) -->

<svg
   xmlns:dc="http://purl.org/dc/elements/1.1/"
   xmlns:cc="http://creativecommons.org/ns#"
   xmlns:rdf="http://www.w3.org/1999/02/22-rdf-syntax-ns#"
   xmlns:svg="http://www.w3.org/2000/svg"
   xmlns="http://www.w3.org/2000/svg"
   xmlns:sodipodi="http://sodipodi.sourceforge.net/DTD/sodipodi-0.dtd"
   xmlns:inkscape="http://www.inkscape.org/namespaces/inkscape"
   width="146.72174mm"
   height="205.06129mm"
   viewBox="0 0 519.88019 726.59513"
   id="svg4311"
   version="1.1"
   inkscape:version="0.91 r13725"
   sodipodi:docname="country-outline-germany.svg">
  <defs
     id="defs4313" />
  <sodipodi:namedview
     id="base"
     pagecolor="#ffffff"
     bordercolor="#666666"
     borderopacity="1.0"
     inkscape:pageopacity="0.0"
     inkscape:pageshadow="2"
     inkscape:zoom="0.35"
     inkscape:cx="674.75978"
     inkscape:cy="68.531294"
     inkscape:document-units="px"
     inkscape:current-layer="layer1"
     showgrid="false"
     fit-margin-top="0"
     fit-margin-left="0"
     fit-margin-right="0"
     fit-margin-bottom="0"
     inkscape:window-width="1920"
     inkscape:window-height="1021"
     inkscape:window-x="0"
     inkscape:window-y="24"
     inkscape:window-maximized="1" />
  <metadata
     id="metadata4316">
    <rdf:RDF>
      <cc:Work
         rdf:about="">
        <dc:format>image/svg+xml</dc:format>
        <dc:type
           rdf:resource="http://purl.org/dc/dcmitype/StillImage" />
        <dc:title></dc:title>
      </cc:Work>
    </rdf:RDF>
  </metadata>
  <g
     inkscape:label="Layer 1"
     inkscape:groupmode="layer"
     id="layer1"
     transform="translate(736.90266,125.70167)">
    <g
       transform="translate(-795.23924,-142.71392)"
       style="display:inline;fill:#e3e4e4;fill-opacity:1"
       inkscape:label="1"
       id="layer1-0">
      <path
         id="path1891"
         transform="translate(57.32454,16.01484)"
         d="m 163,1 c -0.41227,0.053659 -0.70018,0.9222956 -1.46875,0.8125 -0.37541,-0.05363 -1.59528,4.110232 -1.78125,4.59375 -0.54392,1.414191 -1.54381,2.809496 -2.125,3.875 -0.94664,1.735502 -1.72729,1.966642 -2.8125,3.1875 -0.72185,0.812085 -1.64379,1.417894 -2.46875,2.125 -0.0599,0.0513 -0.0126,-0.006 -0.71875,1.40625 -0.74766,1.495326 -1.55544,3.359705 -2.125,4.59375 -0.74419,1.612414 -0.87118,3.096 -1.40625,4.96875 -0.41709,1.459808 -0.52404,3.57455 -0.71875,4.9375 -0.20228,1.415962 -0.68199,2.944873 -1.0625,4.59375 -0.68134,2.952472 2.06824,0.877459 2.5,1.0625 0.34083,0.146073 2.0875,-4.580215 2.09375,-4.59375 0.46868,-1.015486 0.53533,-3.401473 0.71875,-4.59375 0.17236,-1.120342 0.53684,-3.158529 0.71875,-4.25 0.27939,-1.676342 1.74855,-2.743244 2.46875,-3.875 1.97955,-3.11072 0.93235,0.289947 2.125,0.6875 0.4148,0.138266 2.84132,1.161528 3.53125,1.4375 1.86973,0.747891 0.52475,-2.455165 0.6875,-3.1875 0.42824,-1.927116 -0.9505,-3.373617 -1.40625,-4.96875 -0.009,-0.03142 -0.0226,-0.034 -0.0312,-0.0625 0.0118,-0.59446 0.0312,-1.131332 0.0312,-2.03125 1.10513,-0.920941 1.64379,-2.383989 2.46875,-3.5625 0.66965,-0.956644 2.80248,-1.936737 3.5625,-2.46875 C 166.86068,4.931897 164.58926,3.334761 164,2.15625 163.53455,1.2253406 163.24736,0.96780486 163,1 Z m 5.0625,24.90625 c -2.70886,-0.05267 -0.37125,5.075015 -0.375,5.09375 -0.4313,2.156503 3.36631,5.049464 4,6 1.3516,2.027402 0.63377,4.436372 1,7 0.38161,2.671303 0,5.026932 0,7 0,2.36141 2.61623,2.325534 4.5,4 1.74422,1.550415 3.80689,2.422566 5.5,3.5 1.78496,1.135885 0.72832,5.098227 1,7 0.495,3.464994 -1.79156,3.58312 -3,6 -0.84492,1.689841 -4.61593,1.538643 -6,2 -2.16302,0.721007 -4.491,2.072769 -6.5,3 -2.33517,1.077771 -2.75305,3.097181 -4,4.5 -1.4006,1.575677 1.33333,4 2,6 0.49372,1.48116 5.30902,-1.76967 6,-2 2.03324,-0.67775 4.05928,-2.583179 5.5,-3.5 0.8553,-0.544281 2,0.333333 3,0.5 2.00675,0.334458 -2.33333,3.33333 -3.5,5 -1.64781,2.35402 -2.21422,3.47949 -3.5,5.5 -1.38801,2.18116 2.3778,3.1704 3,4 0.65186,0.86915 4.52919,0.41174 5.5,0.5 1.52626,0.13875 3.25536,3.25536 4,4 2.41325,2.41325 0.31811,3.81726 0.5,6 0.15288,1.83453 -3.66667,-0.33333 -5.5,-0.5 -5.60096,-0.50918 0.75398,-0.37699 -3,1.5 -2.07632,1.03816 1.66667,4.33333 2.5,6.5 1.44137,3.74756 2.16226,1.92201 4.5,4 0.56836,0.50521 6.16791,1.89782 6.5,2 2.61014,0.80312 3.89008,1.49618 6.5,2.5 2.60183,1.0007 4.22295,2.8153 6,4 1.87799,1.25199 2.97315,3.71643 4,5 1.34059,1.67573 1.62356,3.57183 2.5,5.5 l 2.5,5.5 c 0.92372,2.03219 2.21757,3.48475 3.5,5.5 0.3861,0.60672 0.85487,1.16874 1.34375,1.71875 -0.62601,-0.31257 -1.27623,-0.59954 -1.78125,-0.875 -1.20006,-0.65458 -1.78994,-1.82119 -2.5,-2.53125 -0.56966,-0.56966 -1.08663,-1.40718 -1.90625,-2.5 -1.11001,-1.48002 -1.81534,-2.52734 -2.5,-3.46875 -0.76487,-1.05169 -2.29625,-2.06975 -3.15625,-2.84375 -0.95216,-0.85694 -2.10681,-1.4529 -3.15625,-2.1875 -0.7019,-0.49133 -1.61058,-2.56217 -2.1875,-3.46875 L 198.625,128.875 c -0.73861,-1.16067 -1.26137,-1.08117 -2.1875,-1.875 -1.06557,-0.91334 -2.49419,-1.01642 -3.15625,-1.28125 -1.90713,-0.76285 -2.03656,-0.16711 -3.78125,-0.3125 -1.54639,-0.12886 -2.21642,0.39545 -3.78125,0.65625 -1.29361,0.21561 -2.66675,0.81093 -4.09375,1.25 -1.85032,0.56933 -2.71854,-0.17915 -4.71875,-0.3125 -1.81304,-0.12087 -2.22893,-0.70746 -4.09375,-1.28125 -1.09847,-0.33799 -2.03019,-2.28396 -2.5,-2.8125 -1.39971,-1.57467 -0.66857,-0.77479 -1.90625,-2.21875 -1.34094,-1.56442 -1.92656,-0.63177 -3.78125,-1.25 -0.95509,-0.31836 -2.83957,1.40416 -3.78125,1.875 -2.19624,1.09812 -0.93525,1.74588 -1.875,3.46875 -0.40668,0.74559 -1.10613,4.17924 -1.25,4.71875 -0.0693,0.2597 -2.11029,2.63004 -2.53125,3.15625 -0.98927,1.23658 -0.40242,2.84817 -0.625,4.40625 -0.15223,1.06563 -0.48201,2.98633 0,4.71875 1.64005,5.89459 -0.90084,6.63463 -0.96875,7.875 -1.85813,-0.6568 -4.65557,-2.68665 -5.03125,-3.15625 -0.6804,-0.8505 -1.44691,-2.06702 -2.1875,-3.125 -0.98176,-1.40252 -3.5459,1.35179 -4.09375,1.5625 -1.18187,0.45456 -0.47928,3.38623 -0.625,4.40625 -0.16162,1.13131 1.537,3.10525 1.875,3.78125 0.60487,1.20973 0.20714,3.34545 0.3125,5.03125 0.11961,1.91368 -1.04201,2.94888 -1.5625,4.40625 -0.54805,1.53455 -2.22469,1.56665 -3.15625,2.21875 -1.3188,0.92316 -1.35018,-0.61744 -2.84375,-1.28125 -0.27169,-0.12075 -1.70395,-2.83992 -1.875,-3.125 l -1.875,-3.15625 C 132.07931,156.46551 130.5494,154.99307 130,154.375 c -1.126,-1.26674 1.46673,-3.25805 1.5625,-3.46875 0.59066,-1.29944 2.31438,-1.66045 3.46875,-2.5 0.96769,-0.70377 -1.45289,-1.89926 -2.1875,-2.84375 -1.0828,-1.39218 -1.45918,-2.27514 -2.21875,-3.46875 -0.62231,-0.97792 -0.20756,-2.31437 -0.3125,-3.46875 -0.16119,-1.77308 -2.1937,-2.16245 -2.84375,-2.8125 -0.6393,-0.6393 -2.82666,-0.21503 -4.09375,-0.3125 -1.0875,-0.0837 -2.64874,0 -4.09375,0 -1.63594,0 -2.24609,0.34074 -4.09375,0.625 -0.86589,0.13321 -3.32979,-1.44491 -4.40625,-1.90625 -1.22005,0.12592 -2.99644,1.51385 -4.40625,2.21875 -0.98395,0.49198 -2.39486,1.30629 -3.4375,1.875 -1.93506,1.05549 -2.01645,-0.19852 -3.15625,-0.3125 -0.99954,-0.1 -2.25013,-1.55321 -3.15625,-2.1875 -1.37168,-0.96018 -2.13577,0 -3.15625,0 -1.34526,0 -3.29035,0.81478 -3.78125,0.9375 -1.90236,0.47559 -2.54492,1.15678 -3.4375,1.5625 -1.19708,0.54413 -1.27659,2.31438 -1.90625,3.46875 -0.10383,0.19034 -3.4064,0.56253 -3.78125,0.625 -1.38697,0.23117 -0.69371,1.14118 -1.5625,2.53125 -0.216,0.3456 1.77997,2.7012 1.875,2.84375 1.43778,2.15666 -0.1641,1.64103 -0.3125,3.125 -0.11204,1.12042 -2.27745,0.71449 -3.125,0.96875 -1.28044,0.38413 -1.95664,0.77016 -3.15625,1.25 -1.36742,0.54697 -0.59342,2.40492 -0.9375,3.78125 -0.25319,1.01273 -0.2695,2.89018 -0.34375,3.78125 -0.12956,1.55472 2.29341,0.61695 3.46875,0.9375 1.74023,0.47461 2.066,0.15652 4.09375,0.3125 1.40331,0.10795 3.61799,0.55181 4.09375,0.625 1.89365,0.29133 2.28069,0.69214 4.09375,1.25 2.01689,0.62058 2.10083,1.23851 3.78125,2.21875 1.49211,0.8704 1.18753,1.68308 2.21875,3.15625 0.74988,1.07126 0.80456,2.68186 0.9375,3.125 0.51886,1.72951 -1.85005,0.7133 -2.53125,0.96875 -1.45214,0.54455 -3.06613,-1.43197 -4.09375,-1.90625 -1.2223,-0.56414 -1.05856,-2.11711 -1.5625,-3.125 -1.22882,-2.45763 -1.22222,0 -1.5625,0 -0.58991,0 -0.30633,3.88231 -0.34375,4.40625 -0.09783,1.36957 -0.38833,2.55538 -0.625,4.09375 -0.20426,1.32767 -0.61074,2.64655 -0.9375,4.0625 -0.37715,1.6343 -0.56476,2.29025 -0.9375,3.78125 -0.35755,1.43018 -0.39181,2.77395 -0.625,4.40625 -0.175,1.225 0.68396,2.76712 0.9375,3.78125 0.48314,1.93259 0.62226,2.10548 0.9375,3.15625 0.48253,1.60846 -0.14101,1.44134 -0.3125,3.15625 -0.10159,1.01582 -2.38209,2.05698 -2.53125,2.1875 -1.11235,0.97331 -2.10908,2.14034 -2.8125,2.84375 -0.94035,0.94035 -1.80166,3.277 -1.90625,3.46875 -0.85181,1.56166 -0.85639,3.17136 -0.9375,3.46875 -0.36729,1.34672 -0.61989,2.71744 -0.9375,4.09375 -0.29841,1.29311 -0.48664,3.43774 -0.625,4.40625 -0.22292,1.56042 -1.119,2.39304 -1.59375,3.4375 -1.00468,2.21028 -0.14806,0.69751 -0.625,2.84375 -0.44554,2.00489 0,1.29774 0,3.15625 0,1.54404 -0.77613,0.4435 -2.1875,1.25 -0.58806,0.33603 -2.26343,-0.40585 -3.46875,-0.625 -0.77029,-0.14005 -2.55938,-0.84271 -3.78125,-1.25 -1.59978,-0.53326 -2.30993,-0.18989 -3.78125,-0.3125 -2.05529,-0.17128 -2.49797,0 -3.78125,0 -2.80258,0 0.19728,1.57818 0.3125,2.5 0.12886,1.03087 1.48414,1.48415 2.21875,2.21875 1.22365,1.22365 -0.87163,2.4282 -1.25,3.46875 -0.49729,1.36753 -1.35112,2.29389 -2.21875,3.78125 -0.70462,1.20792 0,1.83167 0,3.4375 0,1.21384 2.05908,1.60846 2.84375,2.21875 1.4629,1.13782 3.13275,-0.23857 4.09375,-0.3125 0.83797,-0.0645 2.73046,-1.52059 3.4375,-1.90625 1.64333,-0.89636 2.43074,2.43074 2.53125,2.53125 0.30596,0.30596 -0.20755,0.83023 -0.3125,1.25 -0.04896,0.19584 0.02961,-0.0592 -0.3125,0.625 -0.44713,0.89427 0.46898,1.59451 0.9375,3.15625 0.41016,1.36717 1.22111,2.41096 1.59375,3.15625 0.56955,1.1391 2.436,1.32873 3.4375,1.875 0.02074,0.0113 0.04173,0.0204 0.0625,0.0312 l 0,1.15625 c -0.08558,0.69332 -0.379975,2.84983 -0.5,3.75 -0.15491,1.16182 -0.35619,2.49332 -0.5,3.5 -0.19382,1.35671 -0.7478,1.94427 -1.25,3.25 -0.3974,1.03324 -2.02731,1.29011 -2.75,1.75 -0.79777,0.50767 -1.69798,0.15436 -2.75,0.25 -1.11042,0.10095 -2.06306,1.20345 -3,1.75 -1.0426,0.60818 -1.47492,1.6388 -2.25,2.5 -0.82667,0.91852 -1.25116,1.96612 -1.75,2.75 -0.74894,1.1769 -1.49466,1.82681 -2.25,2.75 -0.57927,0.708 -2.51983,0.77533 -3.25,1 -1.37033,0.42164 -1.00175,0.55653 -2.25,1.25 -0.55405,0.3078 2.08448,2.31609 2.25,2.5 0.715,0.79444 1.21057,1.55645 1.75,2.25 0.68674,0.88295 -0.17547,2.10566 -0.25,3 -0.0822,0.98646 -0.73085,2.19254 -1,3 -0.40359,1.21078 -1.28847,1.93271 -2,3 -0.53882,0.80823 -1.1207,1.79311 -1.25,2 -0.60037,0.96059 -2.69842,0.41514 -3.25,0.5 -0.19597,0.0301 -2.04852,-1.63882 -2.5,-2 -1.359268,-1.08741 -2.24179,0.51734 -3.25,0.75 -0.653691,0.15085 -1.952948,2.16994 -2.25,2.5 -1.177967,1.30885 -1.908715,0.47718 -3,0.75 -0.921777,0.23044 -1.833333,-0.5 -2.75,-0.75 -1.450795,-0.39567 -1.171979,2.57835 -1.25,2.75 -0.718806,1.58137 -1.250315,1.78616 -1.75,2.5 -0.552612,0.78945 -2.849473,-1.09595 -3.25,-1.25 -0.998241,-0.38394 -1.56375,-2.15016 -2,-2.75 -0.774974,-1.06559 -1.398274,-0.97879 -2.5,-1.75 -0.911129,-0.63779 -2.593973,-0.99768 -3.25,-1.25 -1.619804,-0.623 -1.26035,1.62045 -1.75,2.25 -0.328633,0.42253 -1.017199,1.16251 -1.75,2 -0.915228,1.04598 -2.651974,0.1768 -3.75,0.25 -0.749802,0.05 -1.352622,0 -2.75,0 -1.361513,0 -1.720694,0.57356 -3,1 -0.950292,0.31676 0.230476,2.99619 0.25,3.25 0.053861,0.70019 1.654524,2.06815 2,2.5 0.747795,0.93474 1.256761,1.79537 1.75,2.5 0.579331,0.82761 1.266401,1.2664 2,2 0.855567,0.85557 0.712064,2.31421 1,3.25 0.565961,1.83937 -0.459068,1.98929 -0.75,3.25 -0.300408,1.30177 -0.484183,2.58231 -0.75,4 -0.196888,1.05007 0.74053,2.03646 1,2.75 0.553403,1.52186 1.401324,1.55703 2.25,2.5 0.780591,0.86732 1.978725,0.65957 3,1 1.763685,0.58789 0.927738,1.04371 2,2.25 0.796448,0.896 -0.923219,2.76966 -1,3 -0.344517,1.03355 -0.938477,2.18978 -1.5,3.5 -0.52513,1.2253 0,1.01536 0,2.5 l 0,3 c 0,1.57361 -0.924097,1.38615 -1.5,2.25 -0.509812,0.76472 -0.967941,1.10622 -1.75,2 -0.762355,0.87126 -1.569238,1.56924 -2.25,2.25 -0.563275,0.56328 -1.224996,1.57499 -1.75,2.25 l -1.75,2.25 c -1.366302,1.75667 0.82835,2.07088 1,2.5 0.315621,0.78905 1.666667,0.33333 2.5,0.5 1.161666,0.23233 1.019687,1.86943 1.5,2.75 0.586824,1.07584 0.12913,1.42043 0.25,2.75 0.07659,0.84252 -1.252603,2.50521 -1.5,3 -0.559072,1.11814 -1.253785,1.56723 -2,2.5 -0.779297,0.97412 -2.075051,0.15962 -3.25,0.25 -0.666559,0.0513 -2.086842,0 -3.25,0 -1.684798,0 -1.134068,1.78211 -1.75,2.75 -0.725525,1.14011 1.018679,2.64856 1.25,3.25 0.4116,1.07016 1.552439,2.24241 2.25,3.25 0.748096,1.08058 0.545546,2.54588 0.75,3.5 l 0.75,3.5 c 0.413547,1.92989 -0.640349,1.2807 -1.25,2.5 -0.238493,0.47699 -1.166228,0.99962 -1.75,1.5 -0.616421,0.52836 0.189762,2.65667 0.25,3.5 0.108245,1.51543 0.657131,2.13567 1,3.25 0.317498,1.03187 1.408927,0.88058 2,1.25 0.789866,0.49367 0.929113,2.04405 1.25,2.75 0.289017,0.63584 0.401103,2.60717 0.5,3.25 0.229792,1.49364 0.454851,2.12264 0.75,3.5 0.338333,1.57889 1.469523,0.8164 2.25,1.25 1.009846,0.56103 1.862412,1.11745 2.5,1.5 0.491659,0.295 -0.225986,3.3898 -0.25,3.75 -0.03724,0.55865 -1.694889,1.48303 -2,1.75 -1.214583,1.06276 -0.469508,1.87803 -0.75,3 -0.131228,0.52491 0.591559,2.36624 0.75,3 0.550908,2.20363 1.216712,1.0429 1.75,1.5 0.8547,0.7326 2.906566,-0.67075 3.25,-0.75 1.487475,-0.34326 1.96372,0.8926 2.75,1.25 0.87805,0.39911 0.355466,2.31053 0.5,3.25 0.128071,0.83246 -0.682093,2.72837 -0.75,3 -0.151136,0.60454 0.213135,2.34448 0.25,2.75 0.09172,1.00893 0.87857,1.75714 1.25,2.5 0.499506,0.99901 1.240094,1.77156 1.75,2.5 0.25663,0.36661 0.541209,0.85548 1,1.15625 -0.149221,-0.0559 -0.267949,-0.10468 -0.5,-0.15625 -1.778843,-0.3953 -0.415946,0.15598 -2,0.75 -1.017353,0.38151 -1.166667,1.83333 -1.75,2.75 -0.500204,0.78604 -1.833333,-0.33333 -2.75,-0.5 -1.066234,-0.19386 -0.174507,0.0698 -1.25,0.5 -1.054531,0.42181 -0.658233,0.98735 -1.5,2.25 -0.331335,0.497 -0.88154,1.58677 -1.25,2.25 -0.533143,0.95966 -1.534874,1.19379 -2.25,1.75 -1.232104,0.9583 -0.842283,1.82495 -1.5,3.25 -0.615417,1.3334 -1.095431,1.36929 -2,2.5 -0.181415,0.22677 -2.044032,1.36269 -2.25,1.5 -0.681973,0.45465 0.945021,2.83506 1,3 0.33825,1.01475 -0.794307,2.18434 -1,2.75 -0.416135,1.14437 -0.627117,2.19491 -1,3.5 -0.424084,1.48429 0.191783,2.3014 0.25,3 0.116524,1.39828 0.719645,2.15893 1,3 0.248607,0.74582 1.333333,0.83333 2,1.25 1.33293,0.83308 0.807593,0.70664 2,1.75 0.630275,0.55149 0.166667,1.66667 0.25,2.5 0.079301,0.79301 2.06967,1.8627 2.5,2.25 1.000077,0.90007 0.886351,1.47725 1.5,2.5 0.53803,0.89672 1.000114,1.50017 1.5,2.25 0.657712,0.98657 2.108228,1.05411 3,1.5 0.871349,0.43567 2.788448,0.37179 3.75,0.5 0.424004,0.0565 1.313906,2.40883 1.5,2.75 0.510972,0.93678 0.175212,2.62818 0.25,3.75 0.08516,1.27733 0,2.6457 0,3.5 0,0.65244 -1.201256,2.00209 -1.5,2.5 -0.569553,0.94926 -1.572557,1.74729 -2.25,2.5 -0.881872,0.97986 -1.147028,1.91171 -1.5,2.5 -0.484476,0.80746 0.346581,2.07948 0.5,3 0.246477,1.47886 0.348032,1.04409 0.75,2.25 0.161119,0.48336 2.265215,0.94384 3,1.25 l 0.875,0.375 c -1.295114,-0.31961 -2.680858,-0.46742 -4.25,-0.78125 -1.860903,-0.37218 -1.835199,0.65314 -3.90625,1.40625 -2.323421,0.84488 -0.978183,2.10898 -2.125,4.59375 -0.589356,1.27694 2.721798,2.42979 3.1875,2.84375 0.77969,0.69305 4.787433,0.30874 5.3125,0.34375 2.383675,0.15891 2.50243,1.5953 3.875,2.46875 1.089468,0.6933 0,4.44861 0,4.9375 0,2.12272 0.276159,3.30883 0.375,4.59375 0.102682,1.33488 1.902803,2.1641 2.8125,3.1875 1.210097,1.36136 2.109252,2.81233 3.1875,4.25 1.052744,1.40365 1.547742,3.59057 2.125,4.9375 0.59059,1.37805 1.242126,2.78893 1.75,3.90625 1.12078,2.46572 3.050844,-0.26599 3.90625,-0.34375 1.259545,-0.11451 2.354826,-3.56349 2.8125,-4.25 1.550739,-2.32611 1.76643,-0.16414 3.5625,-0.34375 0.34169,-0.0342 1.82679,4.01533 2.09375,4.59375 0.58187,1.26072 1.1988,3.81795 1.4375,4.59375 0.71502,2.3238 2.1846,-0.29652 2.8125,-0.375 1.26491,-0.15812 1.41789,-2.09559 2.125,-3.15625 0.83205,-1.24808 2.12684,2.09559 3.1875,3.15625 1.36295,1.36294 2.24144,1.03873 3.875,1.78125 1.89529,0.8615 4.35076,0.67475 5.53125,0.28125 1.66104,-0.55368 1.63505,-2.2465 2.25,-3.125 0.62309,-0.89013 -1.5143,-4.22059 -1.75,-5.28125 -0.07943,-0.35743 0.03354,-0.13187 0.34375,-1.0625 l 0.09375,0.1875 c -0.03603,-0.10342 -0.04684,-0.1858 -0.0625,-0.28125 l 0.34375,0 c -0.01,0.0431 -0.02223,0.0799 -0.03125,0.125 -0.02857,0.14285 -0.05803,0.29017 -0.0625,0.4375 l -0.1875,-0.28125 c 0.04516,0.12963 0.107128,0.26739 0.1875,0.40625 0.0137,0.99693 0.561605,2.08528 1.3125,3.125 0.15676,0.21706 0.273264,0.34733 0.40625,0.5 0.369326,0.5787 0.7856,1.01772 1.1875,1.0625 l -0.0625,-0.125 c 0.222285,0.14306 0.448532,0.32231 0.71875,0.5625 0.67098,0.59642 2.41496,0.80499 3,1 1.1808,0.3936 0.90127,1.50212 1.5,2.5 0.39052,0.65086 0.67428,1.85426 1,2.75 0.41731,1.14761 1.24601,1.95802 1.75,2.75 0.53984,0.84832 1.55788,1.09052 2.5,1.75 1.2074,0.84518 2.22613,0.92755 3,1.25 0.76066,0.31694 2.28489,0.68547 2.5,0.75 0.936,0.2808 3.06709,0 3.5,0 1.11139,0 2.55222,0.3403 3.75,0.5 0.37124,0.0495 2.3687,-1.72269 2.75,-2 1.31022,-0.95289 2.53046,-0.72299 3.5,-1 1.52918,-0.43691 1.83863,0.66859 2.75,1 0.8161,0.29676 1.84903,1.29432 2.5,1.75 0.72234,0.50564 1.92902,1.05219 2.75,1.5 1.09259,0.59596 1.60732,0.96439 2.5,1.5 1.29718,0.77831 1.39767,0.25412 2.75,0.5 1.32649,0.24118 1.94873,1.06294 2.75,1.5 1.00809,0.54987 1.23307,1.54134 2,2.5 0.68648,0.8581 1.68728,1.25686 2.59375,1.5625 l 0,0.8125 1.15625,0 c -0.43486,0.59363 -0.93546,1.30579 -1.28125,1.78125 -1.19116,1.63786 -1.3996,2.1949 -2.46875,3.875 -0.82419,1.29516 -0.69341,2.99436 -1.0625,4.59375 -0.18938,0.82063 -0.48016,2.81846 -0.71875,4.25 -0.39368,2.36209 -1.55924,2.69083 -2.46875,4.25 -0.60671,1.04007 -3.05143,0.70658 -4.59375,1.0625 -1.82947,0.42218 -2.29883,1.60606 -3.53125,2.46875 -1.31164,0.91815 -2.50185,3.03698 -3.1875,3.875 -0.73314,0.89605 -2.86634,2.36223 -3.875,3.1875 -1.1384,0.93142 -1.35244,2.24366 -2.125,3.53125 -0.80682,1.34471 -1.27912,2.55825 -2.125,4.25 -0.81663,1.63326 -0.65167,3.0203 -1.0625,4.9375 -0.41972,1.95871 -1.20666,2.41332 -2.125,4.25 l -2.125,4.25 c -0.88235,1.7647 -1.02056,2.49936 -1.75,4.25 -0.06198,0.14876 -0.33167,4.33087 -0.375,4.9375 -0.08626,1.20759 -2.12447,3.95437 -2.46875,4.59375 -0.88477,1.64315 -0.92046,2.31677 -1.40625,3.53125 -0.28882,0.72206 -1.37597,2.45799 -1.78125,3.1875 -0.94721,1.70498 -1.06699,2.40361 -1.75,3.90625 -0.79482,1.7486 -0.80769,3.7484 -1.0625,4.9375 -0.40112,1.87191 -0.24439,2.89575 -0.375,4.59375 -0.13968,1.81572 0,2.7308 0,4.25 0,2.29916 -0.73828,3.07808 -1.03125,4.25 -0.42347,1.69387 -0.97265,2.11034 -1.4375,3.15625 -0.36059,0.81133 -2.74307,1.03646 -2.8125,1.0625 -1.49208,0.55953 -0.66647,0.78726 -1.78125,2.125 -1.0041,1.20492 0,4.52637 0,5.65625 0,1.9236 0.7108,3.554 1.0625,5.3125 0.3216,1.60801 0.87408,4.0582 1.0625,4.9375 0.46739,2.18118 2.05458,1.72257 2.125,1.78125 0.63537,0.52948 3.67839,-1.00888 3.875,-1.0625 0.45479,-0.12404 0.96609,0 1.4375,0 l 0.34375,0 c 1.83746,0 1.52548,2.80713 2.125,3.90625 0.7435,1.36308 0.76248,3.29367 1.0625,4.59375 0.71572,3.10146 1.20729,0.52188 2.46875,1.0625 1.04957,0.44982 3.42291,-3.15151 3.875,-3.5625 1.48704,-1.35185 3.84245,0.70715 3.90625,0.71875 1.31766,0.23958 3.29487,0.48409 4.9375,0.71875 0.98986,0.14141 2.97961,0 4.59375,0 1.97277,0 2.39792,-2.39792 3.53125,-3.53125 1.53864,-1.53865 2.32943,-2.07774 3.5625,-3.1875 0.19328,-0.17395 3.33316,1.65096 3.53125,1.75 1.51933,0.75967 1.80609,2.0553 2.8125,3.1875 1.25262,1.4092 1.97819,1.52817 3.1875,2.46875 0.91074,0.70835 4.65022,0 4.9375,0 l 4.96875,0 c 1.34371,0 -0.70895,-2.57864 -1.0625,-3.875 -0.40431,-1.48245 -3.06168,-0.2259 -4.59375,-0.34375 -0.78399,-0.0603 -1.81164,-2.71746 -2.125,-3.1875 -0.49182,-0.73773 0.98617,-2.48105 1.40625,-3.53125 0.38657,-0.96642 2.57204,-2.29668 3.1875,-2.84375 1.17997,-1.04887 1.69999,-2.43302 2.46875,-3.53125 0.91753,-1.31075 1.87425,-2.09682 2.84375,-3.1875 1.51331,-1.70248 1.77738,0.53634 3.53125,1.0625 0.68052,0.20416 2.99713,1.67549 3.1875,1.78125 1.54478,0.85821 3.77123,0.24308 5.28125,0.34375 1.53726,0.10249 2.50535,2.17264 2.84375,2.46875 0.5796,0.50715 -1.8755,3.44884 -2.125,3.90625 -1.04493,1.91571 -1.4001,1.59118 -2.46875,2.8125 -1.43463,1.63957 0.90592,1.81185 1.0625,2.125 0.63683,1.27366 2.57864,-1.19199 3.875,-1.78125 2.12523,-0.96601 0.96679,-1.69023 1.78125,-3.15625 1.65874,-2.98573 1.41084,-0.36834 2.8125,-0.71875 1.6647,-0.41618 3.31884,0.93484 4.96875,1.40625 0.80772,0.23078 3.85891,-1.78584 4.59375,-2.125 1.96394,-0.90644 2.58777,0 4.25,0 1.37852,0 2.6305,2.94709 3.15625,3.53125 1.08102,1.20114 2.29773,2.29774 3.1875,3.1875 2.26516,2.26516 1.04218,-1.04217 1.40625,-1.40625 0.42736,-0.42735 -1.99971,-2.58445 -2.46875,-3.1875 -1.14711,-1.47486 -2.23171,-1.55907 -3.53125,-2.46875 -1.4233,-0.99631 -2.5246,-1.6094 -3.875,-2.46875 -1.49286,-0.95 -1.84754,-1.56574 -2.5,-2.125 -2.73093,-2.3408 1.39508,-2.22587 1.78125,-2.84375 0.49577,-0.79322 4.00677,2.48253 4.59375,2.84375 1.61517,0.99396 2.39361,2.6236 3.53125,3.875 0.91586,1.00745 2.55661,1.81775 3.53125,2.5 1.23151,0.86206 2.6443,1.89471 3.90625,2.8125 0.78595,0.5716 1.86969,-0.48304 2.8125,-0.71875 1.78656,-0.44664 3.19414,1.73658 3.90625,2.125 0.95386,0.52029 1.64379,1.4179 2.46875,2.125 0.0578,0.0495 3.76862,-0.56056 4.59375,-0.6875 1.00741,-0.15499 2.96467,1.7538 3.53125,2.09375 1.1128,0.66768 2.0511,2.81635 2.84375,3.90625 1.25425,1.72459 3.02185,1.84518 4.59375,2.8125 0.88999,0.54769 3.71624,-0.25652 4.9375,-0.34375 1.99443,-0.14246 2.56893,-1.79512 3.53125,-2.46875 0.74212,-0.51948 1.14309,-1.12048 1.53125,-1.78125 0.003,-0.004 0.0287,0.004 0.0312,0 l 0.96875,0 c -0.46191,1.39748 -0.92581,2.90267 -1.0625,3.09375 -1.27404,1.78092 -0.10168,-0.40673 1,4 0.5,2 4,1 6,1.5 2.50243,0.62561 2.51534,2.51534 4,4 1.27127,1.27127 2.91208,2.18406 4,3 1.01903,0.76428 0,3.14196 0,5.5 0.96971,0 5.43367,0.11646 7.5,1 2.76808,0.50329 -0.42061,4.20606 -0.5,5 -0.21665,2.16653 0,3.81491 0,5.5 0,1.33333 2.66667,0 4,0 0.1542,0 2.92871,-4.18388 3.5,-5 1.52509,-2.1787 3.43169,-3.43169 5,-5 l 1,-1 c 0.2653,-0.2653 -0.1556,-0.1556 -2,-2 -2.82455,-2.82455 -0.91263,-2.96605 -2,-6.5 -0.42803,-1.3911 1.90707,-4.57698 2.5,-6 0.90614,-2.17475 2.36783,-4.05914 3.5,-6 0.83979,-1.43963 2,2.66667 3,4 1.07703,1.43604 1.33333,3.33333 2,5 0.7245,1.81126 3.66667,-1.33333 5.5,-2 0.79867,-0.29043 1.66667,0.33333 2.5,0.5 0.53481,0.10696 5.39666,-0.44972 6,-0.5 1.93694,-0.16141 3.33333,2 5,3 0.37063,0.22238 3.24803,1.44357 4.5,2 1.85283,0.82348 0.66667,4 1,6 0.27304,1.63826 3.34118,3.34118 4.5,4.5 1.73096,1.73096 3.33939,-1.21432 5.5,-2 4.56452,-1.65983 1.6141,0.16141 5,0.5 2.28503,0.2285 3.0681,-1.22724 5,-2 2.56528,-1.02611 3.27811,-2.08607 5.5,-3.5 2.6678,-1.69769 3.25914,-1.25351 6.5,-2.5 2.46848,-0.94941 6.21007,-0.5292 7.90625,-0.375 1.68751,-1.22728 4.87952,-3.10124 6.59375,-4.625 0.19792,-0.17593 2.83256,-3.64269 4.5,-4 2.23598,-0.47914 5.2413,-1.32413 7,-1.5 1.90962,-0.19096 1.35685,-0.95539 5,-0.5 2.14762,0.26845 6.07445,1.29624 8,1 2.06861,-0.31825 5.44358,0.76069 6.5,-1 0.60167,-1.00278 1.49801,-3.96016 3,-5 0.47804,-0.33095 4.5192,-7.04674 6.5,-4.5 1.48256,1.90615 0.50371,3.41044 3.5,4.5 2.78319,1.01207 3.34818,0.82628 5.5,2 0.67255,0.36684 2.75058,5.24952 5.5,3 1.83333,-1.5 3.25278,-5.24907 5.5,-4.5 1.5,0.5 2.97457,1.91603 4.5,1.5 1.83333,-0.5 5.03911,-3.34355 5.5,-1.5 0.42205,1.68818 1.76022,0.1989 1,4 -0.33333,1.66667 -2.57811,4.36876 -1,5 0.18293,0.0732 4.15385,0.58974 5,2 0.78259,1.30432 1.34721,3.89814 3,5 1.01567,0.67711 2.14256,5.35744 4.5,3 1.73038,-1.73038 3.33098,-1.3027 3.5,-3.5 0.19915,-2.58895 0.39034,-4.96474 0.5,-6.5 0.10123,-1.41721 1.22098,-6.56741 0.5,-7 -0.18712,-0.11227 -4.57005,-2.38579 -5,-3 -0.35279,-0.50398 -5.51549,-2.12072 -3.5,-5 0.57287,-0.81839 3.29344,-4.17376 3.5,-5 0.41502,-1.6601 3.86234,-5.72381 2,-8 -1.76024,-2.15141 -0.56304,-4.84384 -4.5,-5.5 -0.99061,-0.1651 -5.83963,-0.55898 -6,-1 -0.66667,-1.83333 -0.8813,-3.90186 -2,-5.5 -1.16667,-1.66667 -4.28247,-3.12207 -3.5,-5 1.34378,-3.22508 0.54406,-3.48521 2.5,-6 0.25676,-0.33012 3.16603,-4.33302 3.5,-4.5 2.01453,-1.00726 1.69519,-2.2881 4,-2 2.26422,0.28303 3.53807,1.51625 4,0.5 0.95999,-2.11199 0.65283,-4.02226 2.5,-5.5 1.58109,-1.26487 2.95602,-3.68554 5,-4 2.31005,-0.35539 4.75078,0.11314 6.5,-1 2.77855,-1.76817 3.80478,-1.07826 5.5,-3.5 1.55535,-2.22193 2.25286,-2.92143 3.5,-5 1.19419,-1.99031 2.44831,-1.41401 3,-5 0.36286,-2.35858 0.24742,-5.2457 1,-6.5 0.64857,-1.08094 1.25816,-5 3,-5 0.31295,0 4.41064,0.13601 5,0 1.51473,-0.34955 6.01656,-0.0497 6.5,-1.5 0.63982,-1.91947 2.47304,-2.92522 2,-6 -0.41128,-2.6733 -0.50038,-4.335 -1,-6.5 -0.38777,-1.68036 -0.86951,-4.18822 -1.5,-6.5 -1.01503,-3.72179 2.18729,-4.08181 -1.5,-5.5 -2.50157,-0.96214 -4.57927,-1.53963 -6.5,-2.5 -1.60884,-0.80442 -4.32228,-2.02133 -6,-3 -1.44602,-0.84351 -5.41616,-1.45658 -6,-3.5 -0.69099,-2.41848 -0.30689,-4.88362 -2,-7 -1.7491,-2.18638 -1.0015,-4.14328 -4,-5 -2.15569,-0.61591 -5.35896,-0.35896 -7,-2 -1.55065,-1.55065 -3.51384,-2.33045 -4.5,-4.5 -0.74081,-1.62978 -1.09395,-3.7815 -2.5,-5.5 -1.50634,-1.84108 -2.50197,-3.30216 -4.5,-5.5 -0.93144,-1.02458 -2.94763,-5.67103 -5,-5.5 -0.38276,0.0319 -5.2946,0.97027 -6,0.5 -1.48983,-0.99322 -4.85906,-1.90828 -6,-4 -0.96406,-1.76745 -1.34804,-2.66807 -3,-5.5 -1.10046,-1.8865 -2.2071,-3.96829 -3.5,-6 -1.02019,-1.60316 -2.84479,-3.53437 -3.5,-5.5 -0.5614,-1.68419 -0.79473,-4.04144 -2,-6 -1.20516,-1.95839 -2.96247,-4.0791 -4,-6.5 -0.53938,-1.25855 -3.45457,-5.74992 -3,-7 0.5815,-1.59912 1.0299,-3.39812 2,-5.5 0.25171,-0.54537 3.41364,-5.75544 3,-6.5 -0.53894,-0.97009 -1.44397,-2.84053 -2.5,-4.5 -1.46431,-2.30105 -1.40867,-3.40867 -3.5,-5.5 -2.1583,-2.1583 -3.17787,-2.99566 -5,-5 -1.29309,-1.4224 -3.68712,-3.81202 -5,-5.5 -0.91316,-1.17406 -3.5,-2.91988 -3.5,-4.5 0,-0.35333 0.76794,-4.29323 0,-5.5 -0.99606,-1.56523 -1.4314,-3.70721 -3.5,-5.5 -0.12503,-0.10836 -0.24657,-0.25233 -0.375,-0.375 l 0,-1.53125 c 2.05454,1.67929 3.26998,2.69621 3.875,3.90625 1.46629,2.93258 3.45235,0.6277 5.5,1 l 5.5,1 c 1.86637,0.33934 4.07754,-3.70686 5.5,-5 1.47127,-1.33752 2.74254,-2.74254 4,-4 1.88297,-1.88297 3.58808,-2.93571 5.5,-4.5 2.22331,-1.81907 3.37921,-2.1504 5.5,-3.5 2.96243,-1.88518 4.01069,-0.57296 7,-1 2.08363,-0.29766 4.8574,0.80957 6,1 3.54865,0.59144 3.73377,-2.0366 5.5,-3 0.89059,-0.48577 3.2544,-2.5312 4.5,-3.5 2.22743,-1.73244 2.96283,-2.66655 5,-4.5 2.27937,-2.05143 2.79818,-2.79818 4,-4 1.92512,-1.92512 3.21587,-1.60794 5,-2.5 1.93105,-0.96552 3.40977,-1.5499 5.5,-2.5 0.22362,-0.10165 4.61218,-1.38366 5,-1.5 1.7848,-0.53544 1.66667,-3.33333 2.5,-5 0.5981,-1.1962 5.66406,-1.21373 7,-1.5 2.6184,-0.56109 4.43524,-1.70586 6.5,-2.5 1.31857,-0.50714 4.67991,-1.16998 6,-1.5 3.10391,-0.77598 2.10429,-1.63667 4.5,-3.5 2.19475,-1.70703 2.74282,-1.82855 4.5,-3 0.80102,-0.53401 6.9213,0 7.5,0 1.45611,0 4.4327,-3.98943 5,-4.5 0.84341,-0.75907 4.47837,-2.84987 5.5,-3.5 2.33195,-1.48397 0,-3.37955 0,-5 0,-2.08833 -2,-3.66667 -3,-5.5 -1.08552,-1.99011 4.33333,-1.33333 6.5,-2 1.57955,-0.48601 4.459,1.11475 6,1.5 3.42608,0.85652 2.09208,1.16226 4.5,2.5 1.8996,1.05533 0.33333,4.33333 0.5,6.5 0.0739,0.96109 4.29962,1.07491 6,1.5 0.86399,0.216 -1.5487,4.25893 -2,5.5 -0.80358,2.20983 4.31847,3.53329 5.5,4.5 2.57385,2.10588 3.95834,-1.1875 5,-1.5 1.68931,-0.50679 2.40852,-4.81704 3,-6 1.21572,-2.43145 1.33815,-4.68353 2,-7 0.52492,-1.83722 1.08551,-4.34202 1.5,-6 0.58595,-2.3438 0,-3.38457 0,-6.5 l 0,-7.5 c 0,-1.79332 1.34832,-4.04495 2,-6 0.82183,-2.4655 -1.0668,-5.33401 -1.5,-7.5 -0.26032,-1.30159 -2.30853,-4.23231 -3,-5.5 -1.06663,-1.95548 1.65256,-3.30512 2.5,-5 0.0565,-2.97891 -2.56514,-4.82862 -4.5,-8 -0.68024,-0.8314 -5.93549,-0.91315 -6.5,-1 -1.68062,-0.25855 -3.20894,-0.65457 -4.65625,-1.03125 l 0,-2.34375 c 1.9037,0.14291 0.95713,-0.7253 2.15625,-1.125 0.31391,-0.10464 0.92066,-5.52394 1,-6 0.34418,-2.06506 -3.43778,-3.0558 -4.5,-4 -2.03405,-1.80805 -0.64468,-1.71915 -1.5,-4 -1.19251,-3.18001 -2.44745,-3.05932 -4,-5 -2.06262,-2.57827 -0.38439,-3.07508 -0.5,-4 -0.075,-0.59963 2.64523,-4.40872 3,-5 1.22971,-2.04951 0.70047,-4.90332 1,-7 0.19772,-1.38405 1.47905,-4.43715 2,-6 0.38445,-1.15336 -0.74718,-5.23028 -1,-7 -0.12824,-0.89768 0.3429,-4.80057 0.5,-7 0.25705,-3.59874 -0.27598,-3.3118 -0.5,-6 -0.0525,-0.62936 -5.32331,-2.90362 -5.5,-3 -1.11557,-0.60849 -1.96383,-4.32042 -2.5,-5.5 -1.24749,-2.74449 -0.95642,-4.46328 -1.5,-7 -0.32772,-1.52936 2.49824,-3.74736 3,-4.5 1.32445,-1.98667 0.67358,-4.71508 1,-7 0.23396,-1.63772 -3.21737,-4.42389 -4,-5.5 -1.54947,-2.13052 -3.37954,-3.04159 -5,-4.5 -2.12256,-1.91031 -2.56184,-3.52253 -4,-5.5 -1.28886,-1.77219 -4.49109,-2.41828 -6.5,-3.5 -2.25756,-1.21561 -3.99384,-3.3282 -6,-5 -2.05278,-1.71065 -2.88129,-1.60072 -4.5,-2.5 -3.23469,-1.79705 0,-3.00378 0,-6 0,-1.57628 4.2379,-4.2379 5,-5 2.31267,-2.31267 2.18282,-4.36564 3.5,-7 1.00458,-2.00916 2.37214,-3.72765 3.5,-5.5 1.3671,-2.14831 1.64674,-4.28153 2.5,-6.5 1.50965,-3.92508 3.21062,-5.50392 3.5,-6 0.10084,-0.60504 -1.90705,-5.33974 -2.5,-7 -1.31534,-3.68297 -1.67483,-1.87708 -3.15625,-2.15625 0.0542,-0.11344 0.097,-0.23516 0.15625,-0.34375 0.3217,-0.58978 0.76072,-2.28215 1.5,-4.5 0.39832,-1.19497 -2.05105,-4.92252 -2.5,-6 -0.96384,-2.31322 -0.33348,-5.00216 -0.5,-7.5 -0.0897,-1.34553 -1.72463,-4.74273 -2,-5.5 -0.77605,-2.13413 -0.79375,-4.76248 -1,-6 -0.0324,-0.19414 -0.0355,-0.23631 -0.0625,-0.40625 -0.20362,-0.3484 -0.48783,-0.96958 -0.9375,-2.09375 1.65577,-4.30501 -2.9671,-3.29677 -4.5,-5 -0.69996,-0.77773 -5.17878,1.72626 -6,2 -1.19404,0.39801 -3.19374,-4.10624 -3.5,-4.5 -1.58714,-2.04061 -3.89393,-0.8986 -6.5,-1.5 -2.44785,-0.56489 -1.83936,-3.37215 -3,-5.5 -1.26798,-2.32464 -1.74984,-3.49968 -2.5,-5 -0.74907,-1.49815 -0.33333,-3.33333 -0.5,-5 -0.0195,-0.19465 -3.57622,-5.36433 -4,-6 -0.50493,-0.75739 1.9764,-5.97491 2.40625,-6.90625 1.13215,-2.453 -2.32066,-2.87246 -3.40625,-4.09375 -1.00304,-1.12842 -5.18412,-0.39878 -6.5,-0.5 -1.69467,-0.13036 -3.33333,-0.66667 -5,-1 -1.86339,-0.37268 -2.33333,3 -3.5,4.5 -1.31038,1.68477 -2.66667,-3.33333 -4,-5 -1.28784,-1.6098 -4,-1 -6,-1.5 -0.67728,-0.16932 -4.2541,-2.32042 -5.5,-3 -1.81907,-0.99222 -3.88655,-1.76661 -5.5,-2.5 -2.8021,-1.27368 -0.41877,-2.93139 -0.5,-3.5 -0.17264,-1.208456 0.19451,-1.75063 0.5,-4.5 0.15481,-1.39327 -1.75607,-5.2682 -2,-6 -0.57342,-1.720247 -2.33631,1.668795 -3.5,2.5 -0.98734,0.705246 -2.33333,-0.666667 -3.5,-1 -1.82718,-0.52205 -3,2.333333 -4.5,3.5 -0.57477,0.447041 -5.35439,-2.230995 -6,-2.5 -1.58211,-0.659211 -3.33054,0.605553 -5.5,1 -1.99768,0.363214 -1.69176,2.255686 -3,4 -1.36346,1.817952 -1.54759,4.25587 -2,5.5 -0.76925,2.11543 -2.39339,3.82943 -2.5,4 -0.90945,1.45511 -1.66667,-3 -2.5,-4.5 -0.43345,-0.78021 2.63426,-5.268529 3,-6 0.81769,-1.635375 3.70398,-3.333586 5,-4.5 1.66412,-1.497707 4.33177,-1.332853 6.5,-2 2.43195,-0.748293 4.86012,-1.041455 7,-1.5 2.50496,-0.536777 4.66298,-1.793452 6.5,-2.5 0.93689,-0.360341 -5.01465,0 -6,0 -2.01077,0 -4.63276,0.661823 -7,1 -2.91392,0.416274 -4.03017,-1.679239 -6,-2.5 -3.45952,-1.441466 -2.26705,0.226705 -5,0.5 -2.27242,0.227242 -3.3077,2.940178 -4.5,4 -1.48579,1.320705 -1.06561,4.972852 -1.5,7 -0.14169,0.661204 -4.21789,4.217895 -4.5,4.5 l -4,4 c -2.30255,2.30255 -2.91343,3.56085 -4.5,5.5 -1.37202,1.67691 0,4.33333 0,6.5 0,1.66667 -3.33333,0 -5,0 -0.12616,0 -2.37663,-5.22858 -2.5,-5.5 -0.88321,-1.94306 -2.66667,3.33333 -4,5 -2.03797,2.54746 -3.2966,0.65932 -5,1 -1.96796,0.39359 -4,-0.33333 -6,-0.5 -1.53128,-0.12761 -3,0.66667 -4.5,1 -3.00843,0.66854 -3.23609,2.05933 -5.5,3.5 -1.0982,0.69886 1.66667,2 2.5,3 2.36602,2.83922 -0.39692,2.38154 -1,6 -0.19838,1.19031 -1.32107,3.63296 -2,5.5 -1.24195,3.41535 -2.05635,2.64388 -3.5,4.5 -0.79917,1.02751 -2,-1.66667 -3,-2.5 -1.28876,-1.07397 -3.12196,-3.12196 -3.5,-3.5 -0.52717,-0.52717 -4.62094,2.10043 -5.5,2.5 -2.16079,0.98218 -0.68168,0 -1.5,0 -3.03629,0 -1.14334,-0.49 -3.5,-1.5 -1.83829,-0.78784 0,-4 0,-6 0,-4.21064 -4.59186,0.41744 -5.5,0.5 -0.15496,0.0141 -3.65279,5.02259 -4,5.5 -1.02924,1.41521 -4.3182,3.53307 -5.5,4.5 -2.11856,1.73336 -3.24458,3.24458 -5,5 -3.19148,3.19148 -0.82363,2.13373 -1.46875,4.34375 -0.78444,-1.30966 -1.5835,-2.57618 -2.03125,-3.34375 -0.81634,-1.39943 -0.81134,-1.08178 -1.5,-2 -0.76158,-1.01544 1,-2.33333 1.5,-3.5 1.3364,-3.11827 1.64122,-2.11014 3.5,-4.5 1.34102,-1.72417 2.27422,-2.59911 3.5,-4 0.66541,-0.76047 -1.4369,-3.59224 -2,-5 -0.43966,-1.09916 -2.78577,-1.59187 -3.5,-2 -1.90333,-1.08761 0.66667,-4.33333 1,-6.5 0.74781,-4.86076 2.29045,0.76348 3,1 4.64399,1.548 1.11401,-0.12378 4.5,-0.5 2.09,-0.23222 2.63935,-4.14755 3.5,-5.5 1.29624,-2.03694 2.67623,-3.34529 4,-5 1.13845,-1.42306 1.43075,-2.8615 2.5,-5 0.46669,-0.93337 -0.87196,-5.231746 -1,-6 -0.56546,-3.392769 -1.50378,-3.007553 -2.5,-5 -0.77503,-1.55006 -5.49777,0 -6,0 -2.55127,0 -2.52962,3.613739 -3.5,5 -1.56091,2.229868 -4.77252,1.98855 -6,2.5 -1.58585,0.660771 -2.18034,-0.817629 -4,-1.5 -1.52483,-0.571809 -3.68826,-2.011779 -5.5,-3 -2.91183,-1.588272 -2.09481,-2.094813 -4.5,-4.5 -1.67559,-1.675592 -3.99147,-1.663112 -6,-2.5 -3.56028,-1.483451 -1.83965,2.759481 -3,4.5 -1.28897,1.933449 -3.25441,3.254405 -4,4 -0.60093,0.600925 -1.66667,0.333333 -2.5,0.5 -2.14959,0.429918 0.66667,-4.333333 1,-6.5 0.29278,-1.90309 -3.20874,-3.20874 -4,-4 -1.67201,-1.672012 -4.08583,0 -6,0 -2.33571,0 -5.05689,0.674252 -7.5,1 -1.98933,0.265244 3,-2.666667 4.5,-4 2.42298,-2.153763 0,-2.801018 0,-4.5 l 0,-6 c 0,-3.050961 -2.22278,-1.333665 -2.5,-1.5 -1.59784,-0.958706 -1.66667,3.333333 -2.5,5 -0.77817,1.556349 -3.33333,1 -5,1.5 -1.28704,0.386112 -2.66667,-0.333333 -4,-0.5 -0.16538,-0.02067 -0.33333,0 -0.5,0 -1.83547,0 0.35638,-0.142552 2.5,-1 2.49113,-0.996453 3.53802,-3.538017 5,-5 1.80686,-1.80686 2.78622,-2.16706 4.5,-3.5 1.13171,-0.880219 2.33333,-1.666667 3.5,-2.5 1.2976,-1.946397 0.33333,-4.666667 0.5,-7 0.22029,-3.084071 -0.85432,-2.847738 -1.5,-5 -0.61651,-2.055028 -4.51008,-1.8792 -6,-2.5 -2.00685,-0.836187 -6.35212,0 -7,0 -2.64121,0 -3.12172,-2.497373 -5,-4 -2.82106,-2.256848 -2.19408,0 -5,0 -1.899,0 -2.70136,3.85908 -3.5,5 -2.43745,3.482069 -1.40236,0.801348 -3.5,2 -0.49656,0.283747 -5.24727,-3.060907 -6,-3.5 -1.86449,-1.087617 -5.35702,-2.295866 -7,-3 -2.12469,-0.910579 -3.72217,-1.861083 -6,-3 -3.28585,-1.642923 -3.7431,0 -5,0 -1.43372,0 -1.66667,2.333333 -2.5,3.5 -0.15733,0.220261 -5.24232,-3.336024 -5.5,-3.5 -1.4318,-0.911145 -5.25299,-1.212228 -6.5,-1.5 -0.22751,-0.0525 -0.44441,-0.09024 -0.625,-0.09375 z m 305.0625,113.6875 c 1.13092,1.93504 -0.91965,-5.78966 0,0 z m -312.6875,-98.75 c -0.0728,-0.01094 -0.15312,0.0063 -0.25,0.03125 -1.1625,0.3 -4,2.875 -5.5,3.625 -1.86786,0.933928 3.66667,2 5.5,3 1.76188,0.961024 0.33333,-4 0.5,-6 0.075,-0.4125 -0.0315,-0.623438 -0.25,-0.65625 z M 149.90625,43.125 c -0.59209,-0.147157 -1.13541,4.270834 -1.71875,5.875 -0.87465,2.405291 0.59996,2.999815 1,5 0.29417,1.470871 3,0 4.5,0 1.34371,0 2.33333,-1.333333 3.5,-2 2.07954,1.134295 -3.66667,-3 -5.5,-4.5 -1.10212,-0.901731 -1,-2.666667 -1.5,-4 -0.0856,-0.228322 -0.19667,-0.353978 -0.28125,-0.375 z M 422.375,44.96875 c -1.5428,0.119979 -3.21794,0.603491 -3.6875,0.53125 -3.50056,-0.538548 -3.1532,2.452491 -4.5,3.5 -1.02751,0.799172 -1.66667,2 -2.5,3 -3.11763,3.741152 0.75607,1.890175 1,2.5 0.64624,1.615597 3.33333,1 5,1.5 1.15605,0.346814 2.03355,1.21629 2.9375,2.0625 -0.9789,0.04025 -2.71875,2.625 -3.9375,3.4375 -1.18484,0.789893 -2.66667,-1 -4,-1.5 -1.72443,-0.646661 -3.19375,2.794528 -4,3.5 -1.28133,1.121162 2.24363,4.487268 2.5,5 l 2.5,5 c 1.06063,2.121257 -2.81067,2.81067 -3.5,3.5 -1.45774,1.457738 1,4 1.5,6 1.05151,4.20603 1.24851,1.42686 3.5,4 0.27709,0.31668 5.78833,1.78103 6.5,2 4.89918,1.50744 2.26314,-1.76022 4.5,-3.5 1.53986,-1.19767 1.33333,-3.666667 2,-5.5 4.92851,-3.308909 5.5938,-2.965266 8.5,-0.5 1.71273,0.734025 -0.66667,3.666667 -1,5.5 -0.33333,1.83333 4.97237,1.11776 5.8125,-0.5625 0.44225,-0.737085 3.03047,-3.249066 3.1875,-3.4375 0.42899,-0.514783 -1.73112,-4.760593 -2,-5.5 -0.41969,-1.154153 -3.84082,-3.414063 -4.5,-4 -2.08079,-1.849595 -2.20949,-3.156418 -3.5,-5 -2.04594,-2.922775 2.35904,-4.718084 3,-6 1.70592,-3.411842 -2.58783,-3.696901 -3.5,-5 -0.2018,-0.288288 -4.36995,-0.794536 -5.5,-1 -3.65145,-0.6639 -2.24848,-1.686363 -4,-3 -1.33998,-1.004988 0.33333,-3.333333 0.5,-5 0.14077,-1.407676 -1.2697,-1.651229 -2.8125,-1.53125 z M 166.5,57.09375 c -0.0791,-0.0042 -0.17102,0.0097 -0.25,0.03125 -1.36898,0.372982 -2.74323,4.055725 -3.0625,4.375 -1.78474,1.784743 0.93113,1.629478 2,3.5 1.07814,1.886751 3.66667,-2.333333 5.5,-3.5 1.77169,0 -2.33333,-2.666667 -3.5,-4 -0.22631,-0.258639 -0.45012,-0.39371 -0.6875,-0.40625 z m 254.71875,1.5 c 0.15467,0.133146 0.3078,0.28554 0.46875,0.40625 2.28186,1.711397 1.50477,1.719741 3.5,4 1.3107,1.497943 0.78257,4.304114 1,5.5 0.34769,1.912299 -2,-3.333333 -3,-5 -1.27079,-2.117975 -1.87793,-4.585236 -1.96875,-4.90625 z M 176.40625,62.5 c -1.12658,0.244763 1.65625,3.4375 2.28125,5 0.60494,1.512347 1.7347,-2.140217 2.6875,-3.96875 -0.53367,0.02223 -1.52462,-0.246548 -2.53125,-0.53125 l 2.84375,0 c 0.56626,-0.849384 -1.65679,-0.235031 -3,-0.0625 -0.75918,-0.214064 -1.49246,-0.386746 -2,-0.4375 -0.11163,-0.01116 -0.20614,-0.01632 -0.28125,0 z m 5.28125,0.5 c -0.0965,0.144717 -0.21076,0.336 -0.3125,0.53125 0.35872,-0.01494 0.53751,-0.137473 0.3125,-0.53125 z m 117.25,-0.25 c -1.21501,0.104861 -2.91387,1.878387 -3.75,2.25 -1.9034,0.845956 -1.00211,4.008439 -1.5,6 -0.11295,0.451816 4.2711,2.372833 4.5,2.5 0.99552,0.553066 2.72623,4.998087 3,5.5 0.89229,1.635862 0.66667,-3.666667 1,-5.5 0.0861,-0.473339 3.23678,-0.383939 5.09375,-0.5 3.45016,-2.587618 -2.15128,-4.115056 -3.09375,-6 -1.07492,-2.149835 -2.92731,-2.602055 -4.5,-4 -0.21187,-0.188329 -0.46961,-0.274199 -0.75,-0.25 z M 450.5,97.21875 c -1.19485,0.111174 -2.03435,1.992603 -2.65625,2.21875 -2.10758,1.14993 -1.98242,9.78059 0.46875,7.0625 1.07703,1.43604 1.33333,3.33333 2,5 0.78784,1.9696 1.875,-3 3.375,-4.5 2.20395,-2.20395 1.71328,1.46852 3.5,3 1.99984,1.71415 -1.36089,4.98992 -1.5,5.5 -0.5,1.83333 -3.66667,-1 -5.5,-1.5 -0.78945,-0.2153 0.94405,5.66429 1,6 0.37739,2.26433 3.70654,2.59458 5,3.5 1.0743,0.75201 5.73636,-0.81948 7,-1 4.6553,-0.66504 1.68466,-1.26349 4,-3 0.0725,-0.0544 1.42005,-6.15357 1.5,-6.5 2.0391,-0.37075 -5.00066,-5.45526 -5.5,-6 -0.96223,-1.04971 -2.66667,-1 -4,-1.5 -1.13094,-0.3621 -1.91161,-2.1847 -3.5,-4 -1.59705,-1.8252 -2.52938,-2.34188 -3.875,-3.6875 -0.48531,-0.48531 -0.91422,-0.630808 -1.3125,-0.59375 z m -165.8125,45.5625 c 0.81322,2.4055 0.94527,4.33396 -1,6.21875 -0.0519,0.0692 -0.10349,0.12615 -0.15625,0.1875 0.22549,-0.81114 0.3826,-1.72044 1.15625,-2.6875 0.63069,-0.78836 0.39484,-2.33532 0,-3.71875 z m -260.21875,296.125 c 0.03987,0.002 0.08484,-0.003 0.125,0 l 0,0.0312 c -0.038,-0.009 -0.08333,-0.0257 -0.125,-0.0312 z m 0.0625,71.53125 0.15625,0.0625 c 0.625159,0.26048 1.002323,0.36156 1.28125,0.375 l 0,0.46875 c -0.534383,-0.18523 -0.961973,-0.55653 -1.4375,-0.90625 z"
         style="color:#000000;display:block;visibility:visible;fill:#e3e4e4;fill-opacity:1;fill-rule:nonzero;stroke:none;stroke-width:2;stroke-linecap:butt;stroke-linejoin:miter;stroke-miterlimit:4;stroke-dasharray:none;stroke-dashoffset:0;stroke-opacity:1;marker:none;marker-start:none;marker-mid:none;marker-end:none"
         inkscape:connector-curvature="0" />
    </g>
  </g>
</svg>
